# xmcd
#
# Track frame offsets:
#	150
#	30264
#	48624
#	67617
#	84079
#	102848
#	128924
#	148166
#	173675
#	190470
#	208890
#	221635
#	239992
#	255988
#	274063
#	296534
#
# Disc length: 4140 seconds
#
# Revision: 0
# Processed by: cddbd v1.5.2PL0 Copyright (c) Steve Scherf et al.
# Submitted via: audiograbber 1.83.01
#
DISCID=ed102a10
DTITLE=Various Artist - FULL MOON - CD 2 [CDC)
DYEAR=2005
DGENRE=Ballad
TTITLE0=RAH BAND - CLOUDS ACROSS THE MOON
TTITLE1=SIMPLY RED - STARS
TTITLE2=JOE JACKSON - MOONLIGHT
TTITLE3=INXS - SHINING STAR (LIVE)
TTITLE4=YELLO - MOON ON ICE
TTITLE5=ROBERT PALMER - SPANISH MOON
TTITLE6=CONJURE ONE feat. SINEAD O'CONNOR - TEARS FROM THE MOON
TTITLE7=ECHO and THE BUNNYMEN - KILLING MOON
TTITLE8=TOPLOADER - DANCIN' IN THE MOONLIGHT
TTITLE9=E.L.O. - TICKET TO THE MOON
TTITLE10=EARTH WIND and FIRE - SHINING STAR
TTITLE11=ERASURE - MAN IN THE MOON
TTITLE12=PREFAB SPROUT - WE LET THE STARS GO
TTITLE13=ANGGUN - BY THE MOON
TTITLE14=CONCRETE BLONDE - BAJO LA LUNA MEXICANA
TTITLE15=CHUCK BERRY - HAVANA MOON
EXTD=
EXTT0=
EXTT1=
EXTT2=
EXTT3=
EXTT4=
EXTT5=
EXTT6=
EXTT7=
EXTT8=
EXTT9=
EXTT10=
EXTT11=
EXTT12=
EXTT13=
EXTT14=
EXTT15=
PLAYORDER=
